<mxfile host="app.diagrams.net" modified="2023-07-13T03:06:58.669Z" agent="Mozilla/5.0 (Windows NT 10.0; Win64; x64) AppleWebKit/537.36 (KHTML, like Gecko) Chrome/114.0.0.0 Safari/537.36" etag="3XrQMJ9wWWlJh9RMIRwh" version="21.6.2" type="device">
  <diagram name="페이지-1" id="LRV9yE4w53HvQbfg9ijL">
    <mxGraphModel dx="928" dy="519" grid="1" gridSize="10" guides="1" tooltips="1" connect="1" arrows="1" fold="1" page="1" pageScale="1" pageWidth="827" pageHeight="1169" math="0" shadow="0">
      <root>
        <mxCell id="0" />
        <mxCell id="1" parent="0" />
        <mxCell id="JSBXhnSBdoEHyfM7yJ-U-1" value="" style="rounded=0;whiteSpace=wrap;html=1;" parent="1" vertex="1">
          <mxGeometry x="20" y="80" width="770" height="500" as="geometry" />
        </mxCell>
        <mxCell id="JSBXhnSBdoEHyfM7yJ-U-2" value="JS Runtime" style="rounded=1;whiteSpace=wrap;html=1;" parent="1" vertex="1">
          <mxGeometry x="20" y="20" width="120" height="60" as="geometry" />
        </mxCell>
        <mxCell id="JSBXhnSBdoEHyfM7yJ-U-3" value="" style="rounded=0;whiteSpace=wrap;html=1;" parent="1" vertex="1">
          <mxGeometry x="250" y="120" width="210" height="310" as="geometry" />
        </mxCell>
        <mxCell id="JSBXhnSBdoEHyfM7yJ-U-4" value="Memory Heap" style="rounded=1;whiteSpace=wrap;html=1;" parent="1" vertex="1">
          <mxGeometry x="250" y="120" width="210" height="40" as="geometry" />
        </mxCell>
        <mxCell id="JSBXhnSBdoEHyfM7yJ-U-7" value="" style="rounded=0;whiteSpace=wrap;html=1;" parent="1" vertex="1">
          <mxGeometry x="40" y="120" width="200" height="310" as="geometry" />
        </mxCell>
        <mxCell id="JSBXhnSBdoEHyfM7yJ-U-6" value="Call Stack" style="rounded=1;whiteSpace=wrap;html=1;" parent="1" vertex="1">
          <mxGeometry x="40" y="120" width="200" height="40" as="geometry" />
        </mxCell>
        <mxCell id="JSBXhnSBdoEHyfM7yJ-U-9" value="Event Loop" style="ellipse;shape=umlControl;whiteSpace=wrap;html=1;" parent="1" vertex="1">
          <mxGeometry x="30" y="491" width="70" height="80" as="geometry" />
        </mxCell>
        <mxCell id="JSBXhnSBdoEHyfM7yJ-U-11" value="Web API" style="rounded=1;whiteSpace=wrap;html=1;" parent="1" vertex="1">
          <mxGeometry x="580" y="90" width="200" height="40" as="geometry" />
        </mxCell>
        <mxCell id="JSBXhnSBdoEHyfM7yJ-U-13" value="" style="rounded=0;whiteSpace=wrap;html=1;" parent="1" vertex="1">
          <mxGeometry x="510" y="450" width="190" height="90" as="geometry" />
        </mxCell>
        <mxCell id="JSBXhnSBdoEHyfM7yJ-U-19" value="Callback Queue" style="rounded=1;whiteSpace=wrap;html=1;" parent="1" vertex="1">
          <mxGeometry x="510" y="410" width="190" height="40" as="geometry" />
        </mxCell>
        <mxCell id="JSBXhnSBdoEHyfM7yJ-U-25" value="Javascript Engine" style="swimlane;whiteSpace=wrap;html=1;" parent="1" vertex="1">
          <mxGeometry x="30" y="90" width="440" height="350" as="geometry" />
        </mxCell>
        <mxCell id="xzAWG37LkjonEWlrzQVd-4" value="anonymous&lt;br&gt;실행 컨텍스트&lt;br&gt;Execution Context&lt;br&gt;&lt;br&gt;" style="rounded=0;whiteSpace=wrap;html=1;" parent="1" vertex="1">
          <mxGeometry x="40" y="360" width="200" height="70" as="geometry" />
        </mxCell>
        <mxCell id="elNNjKy1mMnkEC37RAbz-1" style="edgeStyle=orthogonalEdgeStyle;rounded=0;orthogonalLoop=1;jettySize=auto;html=1;exitX=0.25;exitY=1;exitDx=0;exitDy=0;entryX=1;entryY=0.5;entryDx=0;entryDy=0;" edge="1" parent="1" source="0QKlS4bDayFesQUnmb8b-1" target="elNNjKy1mMnkEC37RAbz-2">
          <mxGeometry relative="1" as="geometry" />
        </mxCell>
        <mxCell id="0QKlS4bDayFesQUnmb8b-1" value="function () ..." style="rounded=0;whiteSpace=wrap;html=1;" parent="1" vertex="1">
          <mxGeometry x="300" y="340" width="150" height="60" as="geometry" />
        </mxCell>
        <mxCell id="elNNjKy1mMnkEC37RAbz-10" style="edgeStyle=orthogonalEdgeStyle;rounded=0;orthogonalLoop=1;jettySize=auto;html=1;exitX=0.25;exitY=1;exitDx=0;exitDy=0;entryX=0.25;entryY=0;entryDx=0;entryDy=0;" edge="1" parent="1" source="0QKlS4bDayFesQUnmb8b-2" target="0QKlS4bDayFesQUnmb8b-4">
          <mxGeometry relative="1" as="geometry" />
        </mxCell>
        <mxCell id="0QKlS4bDayFesQUnmb8b-2" value="Class&lt;br&gt;Prototype&lt;br&gt;(static)" style="rounded=0;whiteSpace=wrap;html=1;" parent="1" vertex="1">
          <mxGeometry x="40" y="640" width="190" height="90" as="geometry" />
        </mxCell>
        <mxCell id="0QKlS4bDayFesQUnmb8b-6" style="edgeStyle=orthogonalEdgeStyle;rounded=0;orthogonalLoop=1;jettySize=auto;html=1;exitX=0;exitY=0.5;exitDx=0;exitDy=0;entryX=1;entryY=0.5;entryDx=0;entryDy=0;" parent="1" source="0QKlS4bDayFesQUnmb8b-3" target="0QKlS4bDayFesQUnmb8b-2" edge="1">
          <mxGeometry relative="1" as="geometry" />
        </mxCell>
        <mxCell id="0QKlS4bDayFesQUnmb8b-3" value="Constructor" style="rounded=0;whiteSpace=wrap;html=1;" parent="1" vertex="1">
          <mxGeometry x="280" y="640" width="190" height="90" as="geometry" />
        </mxCell>
        <mxCell id="0QKlS4bDayFesQUnmb8b-4" value="Object" style="rounded=0;whiteSpace=wrap;html=1;" parent="1" vertex="1">
          <mxGeometry x="160" y="800" width="190" height="90" as="geometry" />
        </mxCell>
        <mxCell id="elNNjKy1mMnkEC37RAbz-2" value="const temp" style="rounded=0;whiteSpace=wrap;html=1;" vertex="1" parent="1">
          <mxGeometry x="40" y="410" width="100" height="20" as="geometry" />
        </mxCell>
        <mxCell id="elNNjKy1mMnkEC37RAbz-6" style="edgeStyle=orthogonalEdgeStyle;rounded=0;orthogonalLoop=1;jettySize=auto;html=1;exitX=0.25;exitY=0;exitDx=0;exitDy=0;entryX=0.5;entryY=1;entryDx=0;entryDy=0;" edge="1" parent="1" source="elNNjKy1mMnkEC37RAbz-3" target="elNNjKy1mMnkEC37RAbz-4">
          <mxGeometry relative="1" as="geometry" />
        </mxCell>
        <mxCell id="elNNjKy1mMnkEC37RAbz-3" value="function () ..." style="rounded=0;whiteSpace=wrap;html=1;" vertex="1" parent="1">
          <mxGeometry x="300" y="245" width="150" height="60" as="geometry" />
        </mxCell>
        <mxCell id="elNNjKy1mMnkEC37RAbz-5" style="edgeStyle=orthogonalEdgeStyle;rounded=0;orthogonalLoop=1;jettySize=auto;html=1;exitX=0;exitY=0.5;exitDx=0;exitDy=0;entryX=0.75;entryY=0;entryDx=0;entryDy=0;" edge="1" parent="1" source="elNNjKy1mMnkEC37RAbz-4" target="elNNjKy1mMnkEC37RAbz-2">
          <mxGeometry relative="1" as="geometry" />
        </mxCell>
        <mxCell id="elNNjKy1mMnkEC37RAbz-4" value="{&lt;br&gt;temp&lt;br&gt;}" style="rounded=0;whiteSpace=wrap;html=1;" vertex="1" parent="1">
          <mxGeometry x="270" y="170" width="150" height="60" as="geometry" />
        </mxCell>
        <mxCell id="elNNjKy1mMnkEC37RAbz-15" style="edgeStyle=orthogonalEdgeStyle;rounded=0;orthogonalLoop=1;jettySize=auto;html=1;exitX=0.75;exitY=1;exitDx=0;exitDy=0;entryX=0.25;entryY=0;entryDx=0;entryDy=0;fillColor=#f8cecc;strokeColor=#b85450;" edge="1" parent="1" source="elNNjKy1mMnkEC37RAbz-17" target="elNNjKy1mMnkEC37RAbz-20">
          <mxGeometry relative="1" as="geometry" />
        </mxCell>
        <mxCell id="elNNjKy1mMnkEC37RAbz-16" style="edgeStyle=orthogonalEdgeStyle;rounded=0;orthogonalLoop=1;jettySize=auto;html=1;exitX=0.5;exitY=1;exitDx=0;exitDy=0;entryX=0.75;entryY=0;entryDx=0;entryDy=0;fillColor=#dae8fc;strokeColor=#6c8ebf;" edge="1" parent="1" source="elNNjKy1mMnkEC37RAbz-17" target="elNNjKy1mMnkEC37RAbz-18">
          <mxGeometry relative="1" as="geometry" />
        </mxCell>
        <mxCell id="elNNjKy1mMnkEC37RAbz-17" value="Constructor" style="rounded=0;whiteSpace=wrap;html=1;" vertex="1" parent="1">
          <mxGeometry x="585" y="640" width="190" height="90" as="geometry" />
        </mxCell>
        <mxCell id="elNNjKy1mMnkEC37RAbz-18" value="Object" style="rounded=0;whiteSpace=wrap;html=1;" vertex="1" parent="1">
          <mxGeometry x="465" y="800" width="190" height="90" as="geometry" />
        </mxCell>
        <mxCell id="elNNjKy1mMnkEC37RAbz-19" style="edgeStyle=orthogonalEdgeStyle;rounded=0;orthogonalLoop=1;jettySize=auto;html=1;exitX=0.5;exitY=0;exitDx=0;exitDy=0;entryX=1;entryY=0.5;entryDx=0;entryDy=0;fillColor=#dae8fc;strokeColor=#6c8ebf;" edge="1" parent="1" source="elNNjKy1mMnkEC37RAbz-20" target="elNNjKy1mMnkEC37RAbz-17">
          <mxGeometry relative="1" as="geometry" />
        </mxCell>
        <mxCell id="elNNjKy1mMnkEC37RAbz-20" value="new Object&lt;br&gt;(public / private)" style="rounded=0;whiteSpace=wrap;html=1;" vertex="1" parent="1">
          <mxGeometry x="705" y="800" width="190" height="90" as="geometry" />
        </mxCell>
      </root>
    </mxGraphModel>
  </diagram>
</mxfile>
